<?xml version="1.0" encoding="UTF-8"?>
<svg id="Layer_1" data-name="Layer 1" xmlns="http://www.w3.org/2000/svg" xmlns:xlink="http://www.w3.org/1999/xlink" viewBox="0 0 1462.04 896.92">
  <defs>
    <style>
      .cls-1 {
        fill: url(#linear-gradient-38);
      }

      .cls-1, .cls-2, .cls-3, .cls-4, .cls-5, .cls-6, .cls-7, .cls-8, .cls-9, .cls-10, .cls-11, .cls-12, .cls-13, .cls-14, .cls-15, .cls-16, .cls-17, .cls-18, .cls-19, .cls-20, .cls-21, .cls-22, .cls-23, .cls-24, .cls-25, .cls-26, .cls-27, .cls-28, .cls-29, .cls-30, .cls-31, .cls-32, .cls-33, .cls-34, .cls-35, .cls-36, .cls-37, .cls-38, .cls-39, .cls-40, .cls-41, .cls-42, .cls-43, .cls-44, .cls-45, .cls-46, .cls-47, .cls-48, .cls-49, .cls-50, .cls-51, .cls-52, .cls-53, .cls-54, .cls-55, .cls-56, .cls-57, .cls-58, .cls-59, .cls-60, .cls-61, .cls-62, .cls-63, .cls-64, .cls-65, .cls-66, .cls-67, .cls-68, .cls-69, .cls-70, .cls-71, .cls-72, .cls-73, .cls-74, .cls-75, .cls-76, .cls-77, .cls-78, .cls-79, .cls-80, .cls-81, .cls-82, .cls-83, .cls-84, .cls-85, .cls-86, .cls-87, .cls-88, .cls-89, .cls-90, .cls-91, .cls-92, .cls-93, .cls-94, .cls-95, .cls-96 {
        stroke-width: 0px;
      }

      .cls-2 {
        fill: url(#linear-gradient-12);
      }

      .cls-3 {
        fill: url(#linear-gradient-17);
      }

      .cls-4 {
        fill: url(#linear-gradient-88);
      }

      .cls-5 {
        fill: url(#linear-gradient-19);
      }

      .cls-6 {
        fill: url(#linear-gradient-33);
      }

      .cls-7 {
        fill: url(#linear-gradient);
      }

      .cls-8 {
        fill: url(#linear-gradient-62);
      }

      .cls-9 {
        fill: url(#linear-gradient-92);
      }

      .cls-10 {
        fill: url(#linear-gradient-67);
      }

      .cls-11 {
        fill: url(#linear-gradient-57);
      }

      .cls-12 {
        fill: url(#linear-gradient-21);
      }

      .cls-13 {
        fill: url(#linear-gradient-6);
      }

      .cls-14 {
        fill: url(#linear-gradient-76);
      }

      .cls-15 {
        fill: url(#linear-gradient-42);
      }

      .cls-16 {
        fill: url(#linear-gradient-95);
      }

      .cls-17 {
        fill: url(#linear-gradient-15);
      }

      .cls-18 {
        fill: url(#linear-gradient-11);
      }

      .cls-19 {
        fill: url(#linear-gradient-81);
      }

      .cls-20 {
        fill: url(#linear-gradient-73);
      }

      .cls-21 {
        fill: url(#linear-gradient-91);
      }

      .cls-22 {
        fill: url(#linear-gradient-5);
      }

      .cls-23 {
        fill: url(#linear-gradient-31);
      }

      .cls-24 {
        fill: url(#linear-gradient-71);
      }

      .cls-25 {
        fill: url(#linear-gradient-58);
      }

      .cls-26 {
        fill: url(#linear-gradient-63);
      }

      .cls-27 {
        fill: url(#linear-gradient-34);
      }

      .cls-28 {
        fill: url(#linear-gradient-96);
      }

      .cls-29 {
        fill: url(#linear-gradient-41);
      }

      .cls-30 {
        fill: url(#linear-gradient-89);
      }

      .cls-31 {
        fill: url(#linear-gradient-40);
      }

      .cls-32 {
        fill: url(#linear-gradient-66);
      }

      .cls-33 {
        fill: url(#linear-gradient-13);
      }

      .cls-34 {
        fill: url(#linear-gradient-23);
      }

      .cls-97 {
        fill: none;
        stroke: #221f1f;
        stroke-miterlimit: 10;
        stroke-width: 4px;
      }

      .cls-35 {
        fill: url(#linear-gradient-25);
      }

      .cls-36 {
        fill: url(#linear-gradient-43);
      }

      .cls-37 {
        fill: url(#linear-gradient-16);
      }

      .cls-38 {
        fill: url(#linear-gradient-22);
      }

      .cls-39 {
        fill: url(#linear-gradient-54);
      }

      .cls-40 {
        fill: url(#linear-gradient-55);
      }

      .cls-41 {
        fill: url(#linear-gradient-35);
      }

      .cls-42 {
        fill: url(#linear-gradient-50);
      }

      .cls-43 {
        fill: url(#linear-gradient-32);
      }

      .cls-44 {
        fill: url(#linear-gradient-60);
      }

      .cls-45 {
        fill: url(#linear-gradient-59);
      }

      .cls-46 {
        fill: url(#linear-gradient-20);
      }

      .cls-47 {
        fill: url(#linear-gradient-14);
      }

      .cls-48 {
        fill: url(#linear-gradient-2);
      }

      .cls-49 {
        fill: url(#linear-gradient-52);
      }

      .cls-50 {
        fill: url(#linear-gradient-45);
      }

      .cls-51 {
        fill: url(#linear-gradient-93);
      }

      .cls-52 {
        fill: url(#linear-gradient-7);
      }

      .cls-53 {
        fill: url(#linear-gradient-39);
      }

      .cls-54 {
        fill: url(#linear-gradient-3);
      }

      .cls-55 {
        fill: url(#linear-gradient-77);
      }

      .cls-56 {
        fill: url(#linear-gradient-69);
      }

      .cls-57 {
        fill: url(#linear-gradient-94);
      }

      .cls-58 {
        fill: url(#linear-gradient-9);
      }

      .cls-59 {
        fill: url(#linear-gradient-27);
      }

      .cls-60 {
        fill: url(#linear-gradient-82);
      }

      .cls-61 {
        fill: url(#linear-gradient-83);
      }

      .cls-62 {
        fill: url(#linear-gradient-53);
      }

      .cls-63 {
        fill: url(#linear-gradient-90);
      }

      .cls-64 {
        fill: url(#linear-gradient-85);
      }

      .cls-65 {
        fill: url(#linear-gradient-65);
      }

      .cls-66 {
        fill: url(#linear-gradient-36);
      }

      .cls-67 {
        fill: url(#linear-gradient-48);
      }

      .cls-68 {
        fill: url(#linear-gradient-49);
      }

      .cls-69 {
        fill: url(#linear-gradient-8);
      }

      .cls-70 {
        fill: url(#linear-gradient-47);
      }

      .cls-71 {
        fill: url(#linear-gradient-24);
      }

      .cls-72 {
        fill: url(#linear-gradient-26);
      }

      .cls-73 {
        fill: url(#linear-gradient-61);
      }

      .cls-74 {
        fill: url(#linear-gradient-18);
      }

      .cls-75 {
        fill: url(#linear-gradient-51);
      }

      .cls-76 {
        fill: url(#linear-gradient-30);
      }

      .cls-77 {
        fill: url(#linear-gradient-44);
      }

      .cls-78 {
        fill: url(#linear-gradient-84);
      }

      .cls-79 {
        fill: url(#linear-gradient-68);
      }

      .cls-80 {
        fill: url(#linear-gradient-72);
      }

      .cls-81 {
        fill: url(#linear-gradient-29);
      }

      .cls-82 {
        fill: url(#linear-gradient-46);
      }

      .cls-83 {
        fill: url(#linear-gradient-64);
      }

      .cls-84 {
        fill: url(#linear-gradient-28);
      }

      .cls-85 {
        fill: url(#linear-gradient-56);
      }

      .cls-86 {
        fill: url(#linear-gradient-10);
      }

      .cls-87 {
        fill: url(#linear-gradient-87);
      }

      .cls-88 {
        fill: url(#linear-gradient-70);
      }

      .cls-89 {
        fill: url(#linear-gradient-78);
      }

      .cls-90 {
        fill: url(#linear-gradient-86);
      }

      .cls-91 {
        fill: url(#linear-gradient-74);
      }

      .cls-92 {
        fill: url(#linear-gradient-4);
      }

      .cls-93 {
        fill: url(#linear-gradient-37);
      }

      .cls-94 {
        fill: url(#linear-gradient-80);
      }

      .cls-95 {
        fill: url(#linear-gradient-79);
      }

      .cls-96 {
        fill: url(#linear-gradient-75);
      }
    </style>
    <linearGradient id="linear-gradient" x1="-4.2" y1="655.41" x2="633.05" y2="655.41" gradientTransform="translate(44.88 -24.27) rotate(4.31)" gradientUnits="userSpaceOnUse">
      <stop offset="0" stop-color="#7b2a90"/>
      <stop offset=".29" stop-color="#6d3293"/>
      <stop offset=".82" stop-color="#48479e"/>
      <stop offset="1" stop-color="#3b4fa2"/>
    </linearGradient>
    <linearGradient id="linear-gradient-2" x1="62.32" y1="731.8" x2="678.22" y2="731.8" gradientTransform="translate(3.08 320.89) rotate(4.42) scale(.62 .55) skewX(.2)" xlink:href="#linear-gradient"/>
    <linearGradient id="linear-gradient-3" x1="845.7" y1="170.68" x2="1462.04" y2="170.68" gradientTransform="matrix(1,0,0,1,0,0)" xlink:href="#linear-gradient"/>
    <linearGradient id="linear-gradient-4" x1="1178.55" y1="80.76" x2="1458.9" y2="80.76" gradientTransform="matrix(1,0,0,1,0,0)" xlink:href="#linear-gradient"/>
    <linearGradient id="linear-gradient-5" x1="883.43" y1="179.97" x2="982.76" y2="179.97" gradientTransform="matrix(1,0,0,1,0,0)" xlink:href="#linear-gradient"/>
    <linearGradient id="linear-gradient-6" x1="1019.51" y1="532.36" x2="1159.77" y2="532.36" gradientTransform="matrix(1,0,0,1,0,0)" xlink:href="#linear-gradient"/>
    <linearGradient id="linear-gradient-7" x1="1059.98" y1="277.93" x2="1200.24" y2="277.93" gradientTransform="matrix(1,0,0,1,0,0)" xlink:href="#linear-gradient"/>
    <linearGradient id="linear-gradient-8" x1="936.08" y1="254.5" x2="937.33" y2="254.5" gradientTransform="matrix(1,0,0,1,0,0)" xlink:href="#linear-gradient"/>
    <linearGradient id="linear-gradient-9" x1="935.73" y1="254.5" x2="937.68" y2="254.5" gradientTransform="translate(1151.64 -692.07) rotate(87.59)" xlink:href="#linear-gradient"/>
    <linearGradient id="linear-gradient-10" x1="923.58" y1="254.5" x2="949.83" y2="254.5" gradientTransform="matrix(1,0,0,1,0,0)" xlink:href="#linear-gradient"/>
    <linearGradient id="linear-gradient-11" x1="923.55" y1="254.5" x2="949.87" y2="254.5" gradientTransform="translate(1101.25 -702.12) rotate(84.56)" xlink:href="#linear-gradient"/>
    <linearGradient id="linear-gradient-12" x1="621.28" y1="663.68" x2="631.43" y2="663.68" gradientTransform="matrix(1,0,0,1,0,0)" xlink:href="#linear-gradient"/>
    <linearGradient id="linear-gradient-13" x1="620.7" y1="623.09" x2="630.85" y2="623.09" gradientTransform="matrix(1,0,0,1,0,0)" xlink:href="#linear-gradient"/>
    <linearGradient id="linear-gradient-14" x1="620.11" y1="582.51" x2="630.26" y2="582.51" gradientTransform="matrix(1,0,0,1,0,0)" xlink:href="#linear-gradient"/>
    <linearGradient id="linear-gradient-15" x1="661.87" y1="663.1" x2="672.02" y2="663.1" gradientTransform="matrix(1,0,0,1,0,0)" xlink:href="#linear-gradient"/>
    <linearGradient id="linear-gradient-16" x1="661.28" y1="622.51" x2="671.43" y2="622.51" gradientTransform="matrix(1,0,0,1,0,0)" xlink:href="#linear-gradient"/>
    <linearGradient id="linear-gradient-17" x1="660.7" y1="581.92" x2="670.85" y2="581.92" gradientTransform="matrix(1,0,0,1,0,0)" xlink:href="#linear-gradient"/>
    <linearGradient id="linear-gradient-18" x1="702.46" y1="662.51" x2="712.6" y2="662.51" gradientTransform="matrix(1,0,0,1,0,0)" xlink:href="#linear-gradient"/>
    <linearGradient id="linear-gradient-19" x1="701.87" y1="621.92" x2="712.02" y2="621.92" gradientTransform="matrix(1,0,0,1,0,0)" xlink:href="#linear-gradient"/>
    <linearGradient id="linear-gradient-20" x1="701.29" y1="581.34" x2="711.43" y2="581.34" gradientTransform="translate(331.19 -253.02) rotate(26.33)" xlink:href="#linear-gradient"/>
    <linearGradient id="linear-gradient-21" x1="743.04" y1="661.93" x2="753.19" y2="661.93" gradientTransform="matrix(1,0,0,1,0,0)" xlink:href="#linear-gradient"/>
    <linearGradient id="linear-gradient-22" x1="742.46" y1="621.34" x2="752.61" y2="621.34" gradientTransform="translate(58.32 -64.12) rotate(5.11)" xlink:href="#linear-gradient"/>
    <linearGradient id="linear-gradient-23" x1="741.87" y1="580.75" x2="752.02" y2="580.75" gradientTransform="translate(552.67 -345.24) rotate(40.29)" xlink:href="#linear-gradient"/>
    <linearGradient id="linear-gradient-24" x1="783.63" y1="661.34" x2="793.78" y2="661.34" gradientTransform="matrix(1,0,0,1,0,0)" xlink:href="#linear-gradient"/>
    <linearGradient id="linear-gradient-25" x1="783.04" y1="620.76" x2="793.19" y2="620.76" gradientTransform="translate(543.81 -352.27) rotate(37.68)" xlink:href="#linear-gradient"/>
    <linearGradient id="linear-gradient-26" x1="782.46" y1="580.17" x2="792.61" y2="580.17" gradientTransform="matrix(1,0,0,1,0,0)" xlink:href="#linear-gradient"/>
    <linearGradient id="linear-gradient-27" x1="824.22" y1="660.76" x2="834.36" y2="660.76" gradientTransform="translate(1442.09 -204.57) rotate(86.76)" xlink:href="#linear-gradient"/>
    <linearGradient id="linear-gradient-28" x1="823.63" y1="620.17" x2="833.78" y2="620.17" gradientTransform="translate(191.11 -195.2) rotate(15.17)" xlink:href="#linear-gradient"/>
    <linearGradient id="linear-gradient-29" x1="823.05" y1="579.59" x2="833.19" y2="579.59" gradientTransform="translate(1108.18 -391.64) rotate(71.1)" xlink:href="#linear-gradient"/>
    <linearGradient id="linear-gradient-30" x1="216.31" y1="218.14" x2="223.33" y2="218.14" gradientTransform="matrix(1,0,0,1,0,0)" xlink:href="#linear-gradient"/>
    <linearGradient id="linear-gradient-31" x1="215.9" y1="190.03" x2="222.93" y2="190.03" gradientTransform="matrix(1,0,0,1,0,0)" xlink:href="#linear-gradient"/>
    <linearGradient id="linear-gradient-32" x1="215.5" y1="161.93" x2="222.52" y2="161.93" gradientTransform="matrix(1,0,0,1,0,0)" xlink:href="#linear-gradient"/>
    <linearGradient id="linear-gradient-33" x1="244.41" y1="217.73" x2="251.43" y2="217.73" gradientTransform="matrix(1,0,0,1,0,0)" xlink:href="#linear-gradient"/>
    <linearGradient id="linear-gradient-34" x1="244" y1="189.63" x2="251.03" y2="189.63" gradientTransform="matrix(1,0,0,1,0,0)" xlink:href="#linear-gradient"/>
    <linearGradient id="linear-gradient-35" x1="243.6" y1="161.53" x2="250.63" y2="161.53" gradientTransform="matrix(1,0,0,1,0,0)" xlink:href="#linear-gradient"/>
    <linearGradient id="linear-gradient-36" x1="272.51" y1="217.33" x2="279.54" y2="217.33" gradientTransform="matrix(1,0,0,1,0,0)" xlink:href="#linear-gradient"/>
    <linearGradient id="linear-gradient-37" x1="272.11" y1="189.23" x2="279.13" y2="189.23" gradientTransform="matrix(1,0,0,1,0,0)" xlink:href="#linear-gradient"/>
    <linearGradient id="linear-gradient-38" x1="271.7" y1="161.12" x2="278.73" y2="161.12" gradientTransform="matrix(1,0,0,1,0,0)" xlink:href="#linear-gradient"/>
    <linearGradient id="linear-gradient-39" x1="300.61" y1="216.92" x2="307.64" y2="216.92" gradientTransform="matrix(1,0,0,1,0,0)" xlink:href="#linear-gradient"/>
    <linearGradient id="linear-gradient-40" x1="300.21" y1="188.82" x2="307.23" y2="188.82" gradientTransform="matrix(1,0,0,1,0,0)" xlink:href="#linear-gradient"/>
    <linearGradient id="linear-gradient-41" x1="299.8" y1="160.72" x2="306.83" y2="160.72" gradientTransform="matrix(1,0,0,1,0,0)" xlink:href="#linear-gradient"/>
    <linearGradient id="linear-gradient-42" x1="328.72" y1="216.52" x2="335.74" y2="216.52" gradientTransform="matrix(1,0,0,1,0,0)" xlink:href="#linear-gradient"/>
    <linearGradient id="linear-gradient-43" x1="328.31" y1="188.42" x2="335.34" y2="188.42" gradientTransform="matrix(1,0,0,1,0,0)" xlink:href="#linear-gradient"/>
    <linearGradient id="linear-gradient-44" x1="327.91" y1="160.31" x2="334.93" y2="160.31" gradientTransform="matrix(1,0,0,1,0,0)" xlink:href="#linear-gradient"/>
    <linearGradient id="linear-gradient-45" x1="356.82" y1="216.11" x2="363.84" y2="216.11" gradientTransform="matrix(1,0,0,1,0,0)" xlink:href="#linear-gradient"/>
    <linearGradient id="linear-gradient-46" x1="356.41" y1="188.01" x2="363.44" y2="188.01" gradientTransform="matrix(1,0,0,1,0,0)" xlink:href="#linear-gradient"/>
    <linearGradient id="linear-gradient-47" x1="356.01" y1="159.91" x2="363.03" y2="159.91" gradientTransform="matrix(1,0,0,1,0,0)" xlink:href="#linear-gradient"/>
    <linearGradient id="linear-gradient-48" x1="458.53" y1="308.3" x2="466.03" y2="308.3" gradientTransform="matrix(1,0,0,1,0,0)" xlink:href="#linear-gradient"/>
    <linearGradient id="linear-gradient-49" x1="488.53" y1="308.3" x2="496.04" y2="308.3" gradientTransform="matrix(1,0,0,1,0,0)" xlink:href="#linear-gradient"/>
    <linearGradient id="linear-gradient-50" x1="518.54" y1="308.3" x2="526.04" y2="308.3" gradientTransform="matrix(1,0,0,1,0,0)" xlink:href="#linear-gradient"/>
    <linearGradient id="linear-gradient-51" x1="458.53" y1="338.3" x2="466.03" y2="338.3" gradientTransform="translate(685.33 -189.34) rotate(76.72)" xlink:href="#linear-gradient"/>
    <linearGradient id="linear-gradient-52" x1="488.53" y1="338.3" x2="496.04" y2="338.3" gradientTransform="translate(166.94 -162.64) rotate(22.5)" xlink:href="#linear-gradient"/>
    <linearGradient id="linear-gradient-53" x1="518.54" y1="338.3" x2="526.04" y2="338.3" gradientTransform="translate(535.48 -283.84) rotate(58.28)" xlink:href="#linear-gradient"/>
    <linearGradient id="linear-gradient-54" x1="458.53" y1="368.31" x2="466.03" y2="368.31" gradientTransform="matrix(1,0,0,1,0,0)" xlink:href="#linear-gradient"/>
    <linearGradient id="linear-gradient-55" x1="488.53" y1="368.31" x2="496.04" y2="368.31" gradientTransform="matrix(1,0,0,1,0,0)" xlink:href="#linear-gradient"/>
    <linearGradient id="linear-gradient-56" x1="518.54" y1="368.31" x2="526.04" y2="368.31" gradientTransform="matrix(1,0,0,1,0,0)" xlink:href="#linear-gradient"/>
    <linearGradient id="linear-gradient-57" x1="458.53" y1="398.31" x2="466.03" y2="398.31" gradientTransform="matrix(1,0,0,1,0,0)" xlink:href="#linear-gradient"/>
    <linearGradient id="linear-gradient-58" x1="488.53" y1="398.31" x2="496.04" y2="398.31" gradientTransform="translate(854.69 -120.97) rotate(85.93)" xlink:href="#linear-gradient"/>
    <linearGradient id="linear-gradient-59" x1="518.54" y1="398.31" x2="526.04" y2="398.31" gradientTransform="translate(853.79 -168.73) rotate(82.98)" xlink:href="#linear-gradient"/>
    <linearGradient id="linear-gradient-60" x1="458.53" y1="428.31" x2="466.03" y2="428.31" gradientTransform="translate(772.92 -120.01) rotate(76.72)" xlink:href="#linear-gradient"/>
    <linearGradient id="linear-gradient-61" x1="488.53" y1="428.31" x2="496.04" y2="428.31" gradientTransform="translate(201.38 -155.79) rotate(22.5)" xlink:href="#linear-gradient"/>
    <linearGradient id="linear-gradient-62" x1="518.54" y1="428.31" x2="526.04" y2="428.31" gradientTransform="translate(612.05 -241.15) rotate(58.28)" xlink:href="#linear-gradient"/>
    <linearGradient id="linear-gradient-63" x1="458.53" y1="458.31" x2="466.03" y2="458.31" gradientTransform="matrix(1,0,0,1,0,0)" xlink:href="#linear-gradient"/>
    <linearGradient id="linear-gradient-64" x1="488.53" y1="458.31" x2="496.04" y2="458.31" gradientTransform="matrix(1,0,0,1,0,0)" xlink:href="#linear-gradient"/>
    <linearGradient id="linear-gradient-65" x1="518.54" y1="458.31" x2="526.04" y2="458.31" gradientTransform="matrix(1,0,0,1,0,0)" xlink:href="#linear-gradient"/>
    <linearGradient id="linear-gradient-66" x1="1010.42" y1="431.47" x2="1017.45" y2="431.47" gradientTransform="matrix(1,0,0,1,0,0)" xlink:href="#linear-gradient"/>
    <linearGradient id="linear-gradient-67" x1="1010.02" y1="403.37" x2="1017.05" y2="403.37" gradientTransform="matrix(1,0,0,1,0,0)" xlink:href="#linear-gradient"/>
    <linearGradient id="linear-gradient-68" x1="1009.61" y1="375.26" x2="1016.64" y2="375.26" gradientTransform="matrix(1,0,0,1,0,0)" xlink:href="#linear-gradient"/>
    <linearGradient id="linear-gradient-69" x1="1038.53" y1="431.06" x2="1045.55" y2="431.06" gradientTransform="matrix(1,0,0,1,0,0)" xlink:href="#linear-gradient"/>
    <linearGradient id="linear-gradient-70" x1="1038.12" y1="402.96" x2="1045.15" y2="402.96" gradientTransform="translate(601.39 -623.47) rotate(45.64)" xlink:href="#linear-gradient"/>
    <linearGradient id="linear-gradient-71" x1="1037.72" y1="374.86" x2="1044.74" y2="374.86" gradientTransform="matrix(1,0,0,1,0,0)" xlink:href="#linear-gradient"/>
    <linearGradient id="linear-gradient-72" x1="1066.63" y1="430.66" x2="1073.65" y2="430.66" gradientTransform="matrix(1,0,0,1,0,0)" xlink:href="#linear-gradient"/>
    <linearGradient id="linear-gradient-73" x1="1066.22" y1="402.56" x2="1073.25" y2="402.56" gradientTransform="matrix(1,0,0,1,0,0)" xlink:href="#linear-gradient"/>
    <linearGradient id="linear-gradient-74" x1="1065.82" y1="374.45" x2="1072.85" y2="374.45" gradientTransform="matrix(1,0,0,1,0,0)" xlink:href="#linear-gradient"/>
    <linearGradient id="linear-gradient-75" x1="1094.73" y1="430.25" x2="1101.76" y2="430.25" gradientTransform="matrix(1,0,0,1,0,0)" xlink:href="#linear-gradient"/>
    <linearGradient id="linear-gradient-76" x1="1094.33" y1="402.15" x2="1101.35" y2="402.15" gradientTransform="matrix(1,0,0,1,0,0)" xlink:href="#linear-gradient"/>
    <linearGradient id="linear-gradient-77" x1="1093.92" y1="374.05" x2="1100.95" y2="374.05" gradientTransform="matrix(1,0,0,1,0,0)" xlink:href="#linear-gradient"/>
    <linearGradient id="linear-gradient-78" x1="1122.83" y1="429.85" x2="1129.86" y2="429.85" gradientTransform="matrix(1,0,0,1,0,0)" xlink:href="#linear-gradient"/>
    <linearGradient id="linear-gradient-79" x1="1122.43" y1="401.75" x2="1129.45" y2="401.75" gradientTransform="matrix(1,0,0,1,0,0)" xlink:href="#linear-gradient"/>
    <linearGradient id="linear-gradient-80" x1="1122.02" y1="373.64" x2="1129.05" y2="373.64" gradientTransform="matrix(1,0,0,1,0,0)" xlink:href="#linear-gradient"/>
    <linearGradient id="linear-gradient-81" x1="1150.94" y1="429.44" x2="1157.96" y2="429.44" gradientTransform="matrix(1,0,0,1,0,0)" xlink:href="#linear-gradient"/>
    <linearGradient id="linear-gradient-82" x1="1150.53" y1="401.34" x2="1157.56" y2="401.34" gradientTransform="matrix(1,0,0,1,0,0)" xlink:href="#linear-gradient"/>
    <linearGradient id="linear-gradient-83" x1="1150.13" y1="373.24" x2="1157.15" y2="373.24" gradientTransform="matrix(1,0,0,1,0,0)" xlink:href="#linear-gradient"/>
    <linearGradient id="linear-gradient-84" x1="853.98" y1="518.11" x2="879.42" y2="518.11" gradientTransform="matrix(1,0,0,1,0,0)" xlink:href="#linear-gradient"/>
    <linearGradient id="linear-gradient-85" x1="1074.61" y1="507.39" x2="1100.05" y2="507.39" gradientTransform="matrix(1,0,0,1,0,0)" xlink:href="#linear-gradient"/>
    <linearGradient id="linear-gradient-86" x1="313.68" y1="354.79" x2="339.12" y2="354.79" gradientTransform="matrix(1,0,0,1,0,0)" xlink:href="#linear-gradient"/>
    <linearGradient id="linear-gradient-87" x1="1044.37" y1="565.43" x2="1045.63" y2="565.43" gradientTransform="matrix(1,0,0,1,0,0)" xlink:href="#linear-gradient"/>
    <linearGradient id="linear-gradient-88" x1="1044.02" y1="565.43" x2="1045.99" y2="565.43" gradientTransform="translate(1566.02 -502.41) rotate(87.59)" xlink:href="#linear-gradient"/>
    <linearGradient id="linear-gradient-89" x1="1031.76" y1="565.43" x2="1058.24" y2="565.43" gradientTransform="matrix(1,0,0,1,0,0)" xlink:href="#linear-gradient"/>
    <linearGradient id="linear-gradient-90" x1="1031.73" y1="565.43" x2="1058.28" y2="565.43" gradientTransform="translate(1508.81 -528.47) rotate(84.56)" xlink:href="#linear-gradient"/>
    <linearGradient id="linear-gradient-91" x1="703" y1="435.03" x2="704.26" y2="435.03" gradientTransform="matrix(1,0,0,1,0,0)" xlink:href="#linear-gradient"/>
    <linearGradient id="linear-gradient-92" x1="702.65" y1="435.03" x2="704.62" y2="435.03" gradientTransform="translate(1108.71 -286.26) rotate(87.59)" xlink:href="#linear-gradient"/>
    <linearGradient id="linear-gradient-93" x1="690.39" y1="435.03" x2="716.87" y2="435.03" gradientTransform="matrix(1,0,0,1,0,0)" xlink:href="#linear-gradient"/>
    <linearGradient id="linear-gradient-94" x1="690.36" y1="435.03" x2="716.91" y2="435.03" gradientTransform="translate(1069.99 -306.68) rotate(84.56)" xlink:href="#linear-gradient"/>
    <linearGradient id="linear-gradient-95" x1="459.71" y1="124.25" x2="485.15" y2="124.25" gradientTransform="matrix(1,0,0,1,0,0)" xlink:href="#linear-gradient"/>
    <linearGradient id="linear-gradient-96" x1="871.22" y1="680.92" x2="899.78" y2="680.92" gradientTransform="matrix(1,0,0,1,0,0)" xlink:href="#linear-gradient"/>
  </defs>
  <g>
    <path class="cls-7" d="m612.6,866.54s.82-120.07-103.25-106.5l-29.55,4.22s-89.74,16.41-117.91-62.13c0,0-28.45-83.93-119.09-74.51-.22.02-.44.1-.66.14-.63.13-1.26.26-1.9.38-1,.19-2,.38-3.01.55-1.33.23-2.65.45-3.98.65-1.61.25-3.22.47-4.83.68-1.84.24-3.69.45-5.54.64-2.04.21-4.08.39-6.12.53-2.19.16-4.38.28-6.57.35-2.29.08-4.59.12-6.88.11-2.36-.01-4.71-.08-7.06-.21-2.38-.13-4.75-.33-7.12-.6-2.36-.27-4.7-.62-7.03-1.06-2.29-.43-4.57-.96-6.82-1.59-2.19-.62-4.36-1.34-6.48-2.19-2.06-.82-4.07-1.77-6-2.85-1.88-1.06-3.69-2.25-5.39-3.59-1.68-1.32-3.24-2.79-4.65-4.4-.9-1.03-1.75-2.12-2.52-3.25-.99-1.47-1.92-2.96-2.97-4.38-1.08-1.47-2.16-2.96-3.13-4.5-.82-1.3-1.59-2.63-2.32-3.98-.89-1.63-1.72-3.3-2.49-4.99-.9-1.97-1.73-3.97-2.49-6-.87-2.31-1.64-4.65-2.33-7.02-.77-2.65-1.44-5.34-2-8.05-.63-3-1.12-6.03-1.51-9.08-.42-3.36-.7-6.73-.85-10.11-.16-3.71-.16-7.43-.02-11.15.04-.92.08-1.85.13-2.77,0,0-28.66-99.98-124.57-100.25L0,820.37l612.6,46.16Z"/>
    <path class="cls-48" d="m388.47,849.44s-4.15-49.16-68.9-42.42l-18.38,2.12s-55.8,8.39-73.89-34.89c0,0-18.3-46.24-74.7-41.69-.14.01-.28.05-.41.07-.39.07-.79.13-1.18.2-.62.1-1.25.19-1.87.28-.82.12-1.65.23-2.48.33-1,.12-2,.24-3,.34-1.15.12-2.3.22-3.45.32-1.27.1-2.54.18-3.81.25-1.36.07-2.72.12-4.09.15-1.43.03-2.86.03-4.29.01-1.47-.02-2.94-.08-4.4-.16-1.48-.09-2.96-.21-4.44-.38-1.47-.17-2.93-.37-4.39-.63-1.43-.25-2.86-.56-4.26-.92-1.37-.35-2.73-.76-4.05-1.24-1.29-.47-2.55-1-3.76-1.61-1.18-.59-2.32-1.26-3.38-2.01-1.05-.74-2.04-1.55-2.92-2.45-.57-.57-1.11-1.17-1.59-1.8-.63-.81-1.22-1.64-1.88-2.42-.69-.82-1.36-1.64-1.98-2.49-.52-.72-1.01-1.45-1.47-2.2-.56-.9-1.09-1.82-1.59-2.75-.58-1.09-1.11-2.19-1.59-3.31-.56-1.27-1.05-2.56-1.5-3.87-.5-1.46-.93-2.94-1.3-4.43-.41-1.65-.74-3.32-1-4.99-.29-1.84-.48-3.7-.6-5.55-.13-2.04-.15-4.08-.09-6.12.02-.51.04-1.01.06-1.52,0,0-.3-54.7-60.05-55.5l-15.87,185.27,382.48,36Z"/>
    <path class="cls-97" d="m29.83,538.17c1.49,4.4,3.13,8.74,4.95,13.01,1.65,3.87,3.44,7.67,5.41,11.39,1.78,3.37,3.7,6.67,5.78,9.87,1.89,2.91,3.91,5.74,6.08,8.46,1.98,2.49,4.07,4.88,6.29,7.15,2.04,2.09,4.18,4.08,6.42,5.95,2.07,1.73,4.23,3.35,6.47,4.85,2.08,1.39,4.23,2.68,6.44,3.86,2.06,1.09,4.17,2.08,6.32,2.97,2.01.82,4.05,1.55,6.12,2.18,1.93.59,3.88,1.09,5.85,1.5,1.82.38,3.65.69,5.49.93,1.68.21,3.36.37,5.05.46,1.51.08,3.02.11,4.52.09,1.31-.02,2.62-.07,3.92-.17,2.66-.2,5.33-.56,7.9-1.31,2.58-.75,4.99-1.98,7.44-3.04,2.55-1.1,5.1-2.22,7.67-3.25,1.7-.69,3.42-1.35,5.14-2,3.41-1.3,6.85-2.54,10.3-3.74,6.74-2.35,13.56-4.47,20.45-6.31,17.65-4.71,36.1-7.73,54.41-6.42,12.23.87,24.43,3.8,35.19,9.79,7.77,4.32,14.64,10.2,20.03,17.27,8.17,10.72,10.83,22.54,12.46,35.55.85,6.79,1.66,13.6,2.98,20.33,3.56,18.22,8.96,36.29,17.67,52.75,6.43,12.14,14.76,23.37,25.29,32.27,8.57,7.24,18.48,12.79,29.14,16.3,9.42,3.1,19.31,4.62,29.22,4.84,8.55.19,17.11-.58,25.52-2.11,6.11-1.11,12.15-2.63,18.05-4.56,2.3-.75,4.56-1.61,6.8-2.5,142.82-56.86,186.77,22.93,199.51,63.31,0,0,8.54,30.59,9.31,40.81,0,0,3.06,18.89,1.02,27.83"/>
  </g>
  <path class="cls-54" d="m845.7.78s14.09,86.53,116.5,63.61l29.04-6.88s87.89-24.46,123.05,51.21c0,0,35.92,81.01,125.34,63.44.22-.04.43-.14.64-.2.62-.19,1.24-.37,1.86-.55.98-.28,1.96-.56,2.94-.82,1.3-.35,2.6-.69,3.91-1.01,1.58-.39,3.16-.76,4.75-1.12,1.81-.4,3.63-.79,5.46-1.14,2.01-.39,4.02-.75,6.05-1.09,2.16-.35,4.33-.67,6.51-.95,2.28-.29,4.56-.53,6.84-.73,2.35-.2,4.7-.34,7.06-.43,2.38-.08,4.76-.1,7.14-.04,2.37.06,4.74.19,7.1.42,2.32.22,4.64.54,6.94.96,2.24.42,4.46.94,6.65,1.59,2.12.63,4.21,1.39,6.23,2.3,1.97.88,3.88,1.91,5.69,3.09,1.79,1.17,3.48,2.49,5.02,3.96.99.95,1.94,1.95,2.8,3.01,1.12,1.37,2.18,2.77,3.36,4.1,1.21,1.37,2.42,2.75,3.52,4.2.93,1.22,1.82,2.48,2.67,3.75,1.03,1.55,2.01,3.13,2.93,4.74,1.08,1.88,2.09,3.8,3.03,5.75,1.07,2.22,2.06,4.49,2.96,6.78,1.01,2.57,1.92,5.19,2.72,7.83.89,2.93,1.67,5.91,2.32,8.9.72,3.3,1.31,6.64,1.76,9.99.5,3.68.83,7.39,1.03,11.1.05.92.09,1.85.12,2.77,0,0,6.81,99.14,102.35,90.74l.06-339.13-616.34-.17Z"/>
  <path class="cls-92" d="m1178.55,3.1s6.25,40.25,52.74,29.84l13.18-3.12s39.9-11.1,55.86,23.25c0,0,16.31,36.78,56.9,28.8.1-.02.2-.06.29-.09.28-.09.56-.17.84-.25.44-.13.89-.25,1.34-.37.59-.16,1.18-.31,1.77-.46.72-.18,1.43-.35,2.15-.51.82-.18,1.65-.36,2.48-.52.91-.18,1.83-.34,2.74-.49.98-.16,1.97-.3,2.95-.43,1.03-.13,2.07-.24,3.11-.33,1.07-.09,2.13-.16,3.2-.19,1.08-.04,2.16-.05,3.24-.02,1.08.03,2.15.09,3.22.19,1.06.1,2.11.24,3.15.44,1.02.19,2.03.43,3.02.72.96.29,1.91.63,2.83,1.04.9.4,1.76.87,2.58,1.4.81.53,1.58,1.13,2.28,1.8.45.43.88.88,1.27,1.37.51.62.99,1.26,1.52,1.86.55.62,1.1,1.25,1.6,1.91.42.55.83,1.12,1.21,1.7.47.7.91,1.42,1.33,2.15.49.85.95,1.73,1.37,2.61.49,1.01.93,2.04,1.34,3.08.46,1.17.87,2.36,1.24,3.56.41,1.33.76,2.68,1.05,4.04.33,1.5.59,3.01.8,4.54.23,1.67.38,3.35.47,5.04.02.42.04.84.05,1.26,0,0,3.82,45.1,47.19,41.29l-.69-154.05-279.65-1.04Z"/>
  <path class="cls-97" d="m819.29.78c16.5,39.17,67.6,113.99,204.27,44.65,2.16-1.09,4.33-2.15,6.55-3.11,5.7-2.46,11.58-4.51,17.56-6.17,8.24-2.29,16.69-3.83,25.22-4.41,9.88-.68,19.87-.06,29.53,2.18,10.93,2.53,21.31,7.16,30.5,13.6,11.29,7.91,20.61,18.34,28.11,29.85,10.17,15.6,17.18,33.11,22.37,50.93,1.92,6.58,3.34,13.28,4.8,19.97,2.8,12.81,6.52,24.34,15.62,34.28,6.01,6.56,13.38,11.79,21.51,15.39,11.26,4.99,23.68,6.81,35.94,6.57,18.35-.36,36.46-5.03,53.6-11.32,6.7-2.46,13.3-5.18,19.8-8.13,3.33-1.51,6.63-3.05,9.91-4.66,1.65-.81,3.3-1.62,4.93-2.46,2.46-1.26,4.9-2.61,7.35-3.93,2.35-1.28,4.64-2.72,7.14-3.7,2.49-.97,5.11-1.58,7.74-2.02,1.29-.21,2.59-.39,3.89-.52,1.5-.16,3.01-.26,4.51-.32,1.69-.06,3.38-.06,5.07,0,1.85.07,3.71.21,5.55.43,2,.24,3.99.56,5.96.97,2.12.44,4.22.98,6.3,1.62,2.23.69,4.42,1.48,6.56,2.38,2.31.97,4.56,2.06,6.76,3.26,2.37,1.29,4.66,2.71,6.88,4.25,2.4,1.66,4.71,3.45,6.93,5.34,2.41,2.06,4.72,4.26,6.91,6.55,2.4,2.51,4.67,5.15,6.82,7.88,2.36,3,4.57,6.11,6.65,9.31,2.29,3.52,4.42,7.15,6.42,10.85"/>
  <path class="cls-22" d="m982.27,185.78l-5.7-5.7c-.8-.8-1.91-1.2-3.04-1.08-1.08.11-2.03.68-2.62,1.56-1.05,1.59-2.4,2.53-4.01,2.8-2.99.51-6.31-1.43-8.57-3.15-.78-.59-1.75-.83-2.72-.68-1.01.15-1.93.72-2.53,1.56-1.59,2.23-3.38,3.41-5.32,3.51-2.3.12-4.73-1.28-7.22-4.13-.71-.81-1.75-1.27-2.83-1.23-1.11.03-2.13.53-2.81,1.39-1.84,2.33-3.86,3.54-5.98,3.59-2.43.04-4.93-1.35-7.42-4.2-.71-.81-1.73-1.28-2.8-1.3-1.04-.02-2.01.38-2.71,1.13-2.04,2.16-4.12,3.26-6.2,3.26-.02,0-.04,0-.06,0-2.05-.02-4.04-1.09-5.92-3.16-.68-.76-1.63-1.18-2.65-1.19-1.06-.01-2.09.43-2.82,1.21-2.54,2.69-5.03,3.79-7.4,3.27-4.86-1.07-7.39-8.51-7.49-8.83l.67-.22c.02.07,2.51,7.38,6.98,8.37,2.11.47,4.38-.56,6.74-3.06.87-.92,2.09-1.45,3.34-1.43,1.23.01,2.35.52,3.17,1.42,1.74,1.93,3.56,2.91,5.41,2.93,1.89,0,3.83-1,5.74-3.04.84-.89,1.99-1.38,3.23-1.35,1.27.02,2.48.58,3.32,1.54,1.62,1.84,4.11,4.04,6.87,3.96,1.91-.05,3.74-1.17,5.45-3.33.81-1.02,2.02-1.63,3.34-1.66,1.31-.03,2.53.51,3.38,1.47,1.61,1.85,4.07,4.02,6.66,3.89,1.71-.08,3.32-1.16,4.78-3.21.71-.99,1.8-1.66,2.99-1.85,1.17-.18,2.32.11,3.26.82,2.15,1.63,5.29,3.48,8.03,3.02,1.41-.24,2.6-1.08,3.54-2.5.7-1.06,1.85-1.74,3.14-1.87,1.34-.13,2.66.33,3.61,1.29l5.7,5.7-.5.5Z"/>
  <path class="cls-13" d="m1159.06,540.56l-8.04-8.04c-1.13-1.13-2.7-1.69-4.3-1.53-1.52.15-2.87.96-3.7,2.21-1.49,2.24-3.39,3.57-5.66,3.95-4.22.71-8.91-2.02-12.11-4.45-1.1-.83-2.47-1.18-3.85-.97-1.42.22-2.73,1.02-3.57,2.2-2.25,3.15-4.78,4.82-7.51,4.95-3.25.16-6.68-1.8-10.19-5.83-1-1.14-2.44-1.77-4-1.74-1.56.04-3,.75-3.96,1.96-2.6,3.29-5.45,5-8.45,5.08-3.43.1-6.95-1.91-10.47-5.92-1-1.14-2.44-1.81-3.96-1.84-1.47-.05-2.83.54-3.83,1.59-2.9,3.08-5.88,4.63-8.84,4.6-2.89-.03-5.71-1.53-8.36-4.47-.97-1.07-2.3-1.67-3.75-1.68-1.49,0-2.95.61-3.98,1.7-3.58,3.8-7.1,5.35-10.45,4.61-6.86-1.51-10.43-12.02-10.58-12.47l.94-.31c.03.1,3.55,10.42,9.86,11.81,2.99.65,6.19-.8,9.51-4.32,1.23-1.3,2.94-2.02,4.72-2.02,1.73.02,3.32.73,4.47,2.01,2.46,2.72,5.03,4.11,7.63,4.14,2.65.04,5.4-1.42,8.11-4.29,1.19-1.26,2.82-1.93,4.57-1.91,1.79.03,3.5.82,4.68,2.17,2.28,2.6,5.84,5.69,9.7,5.59,2.69-.07,5.28-1.65,7.7-4.7,1.14-1.44,2.86-2.29,4.72-2.34,1.86-.05,3.58.71,4.77,2.08,2.27,2.6,5.74,5.67,9.4,5.49,2.41-.12,4.69-1.64,6.75-4.54,1-1.4,2.54-2.35,4.23-2.61,1.65-.25,3.28.16,4.6,1.16,3.04,2.3,7.47,4.91,11.34,4.26,1.99-.34,3.67-1.52,5-3.52,1-1.5,2.61-2.46,4.43-2.64,1.9-.19,3.76.47,5.1,1.82l8.04,8.04-.7.7Z"/>
  <path class="cls-52" d="m1199.53,286.12l-8.04-8.04c-1.13-1.13-2.7-1.69-4.3-1.53-1.52.15-2.87.96-3.7,2.21-1.49,2.24-3.39,3.57-5.66,3.95-4.22.71-8.91-2.02-12.11-4.45-1.1-.83-2.47-1.18-3.85-.97-1.42.22-2.73,1.02-3.57,2.2-2.25,3.15-4.78,4.82-7.51,4.95-3.25.16-6.68-1.8-10.19-5.83-1-1.14-2.44-1.77-4-1.74-1.56.04-3,.75-3.96,1.96-2.6,3.29-5.45,5-8.45,5.08-3.43.1-6.95-1.91-10.47-5.92-1-1.14-2.44-1.81-3.96-1.84-1.47-.05-2.83.54-3.83,1.59-2.9,3.08-5.88,4.63-8.84,4.6-2.89-.03-5.71-1.53-8.36-4.47-.97-1.07-2.3-1.67-3.75-1.68-1.49,0-2.95.61-3.98,1.7-3.58,3.8-7.1,5.35-10.45,4.61-6.86-1.51-10.43-12.02-10.58-12.47l.94-.31c.03.1,3.55,10.42,9.86,11.81,2.99.65,6.19-.8,9.51-4.32,1.23-1.3,2.94-2.02,4.72-2.02,1.73.02,3.32.73,4.47,2.01,2.46,2.72,5.03,4.11,7.63,4.14,2.65.04,5.4-1.42,8.11-4.29,1.19-1.26,2.82-1.93,4.57-1.91,1.79.03,3.5.82,4.68,2.17,2.28,2.6,5.84,5.69,9.7,5.59,2.69-.07,5.28-1.65,7.7-4.7,1.14-1.44,2.86-2.29,4.72-2.34,1.86-.05,3.58.71,4.77,2.08,2.27,2.6,5.74,5.67,9.4,5.49,2.41-.12,4.69-1.64,6.75-4.54,1-1.4,2.54-2.35,4.23-2.61,1.65-.25,3.28.16,4.6,1.16,3.04,2.3,7.47,4.91,11.34,4.26,1.99-.34,3.67-1.52,5-3.52,1-1.5,2.61-2.46,4.43-2.64,1.9-.19,3.76.47,5.1,1.82l8.04,8.04-.7.7Z"/>
  <g>
    <line class="cls-69" x1="937.33" y1="239.5" x2="936.08" y2="269.5"/>
    <rect class="cls-58" x="921.69" y="254.14" width="30.03" height=".7" transform="translate(643.1 1179.69) rotate(-87.59)"/>
  </g>
  <g>
    <line class="cls-86" x1="923.58" y1="253.25" x2="949.83" y2="255.75"/>
    <rect class="cls-18" x="936.36" y="241.31" width=".7" height="26.37" transform="translate(594.55 1162.86) rotate(-84.56)"/>
  </g>
  <g>
    <path class="cls-2" d="m626.28,658.61c2.8-.04,5.11,2.2,5.15,5,.04,2.8-2.2,5.11-5,5.15-2.8.04-5.11-2.2-5.15-5-.04-2.8,2.2-5.11,5-5.15Z"/>
    <path class="cls-33" d="m625.7,618.02c2.8-.04,5.11,2.2,5.15,5,.04,2.8-2.2,5.11-5,5.15-2.8.04-5.11-2.2-5.15-5-.04-2.8,2.2-5.11,5-5.15Z"/>
    <circle class="cls-47" cx="625.19" cy="582.51" r="5.07"/>
    <path class="cls-17" d="m666.87,658.02c2.8-.04,5.11,2.2,5.15,5,.04,2.8-2.2,5.11-5,5.15-2.8.04-5.11-2.2-5.15-5-.04-2.8,2.2-5.11,5-5.15Z"/>
    <path class="cls-37" d="m666.29,617.44c2.8-.04,5.11,2.2,5.15,5,.04,2.8-2.2,5.11-5,5.15-2.8.04-5.11-2.2-5.15-5-.04-2.8,2.2-5.11,5-5.15Z"/>
    <path class="cls-3" d="m665.7,576.85c2.8-.04,5.11,2.2,5.15,5,.04,2.8-2.2,5.11-5,5.15-2.8.04-5.11-2.2-5.15-5-.04-2.8,2.2-5.11,5-5.15Z"/>
    <path class="cls-74" d="m707.46,657.44c2.8-.04,5.11,2.2,5.15,5,.04,2.8-2.2,5.11-5,5.15-2.8.04-5.11-2.2-5.15-5-.04-2.8,2.2-5.11,5-5.15Z"/>
    <path class="cls-5" d="m706.87,616.85c2.8-.04,5.11,2.2,5.15,5,.04,2.8-2.2,5.11-5,5.15-2.8.04-5.11-2.2-5.15-5-.04-2.8,2.2-5.11,5-5.15Z"/>
    <circle class="cls-46" cx="706.36" cy="581.34" r="5.07" transform="translate(-184.58 373.68) rotate(-26.33)"/>
    <path class="cls-12" d="m748.04,656.85c2.8-.04,5.11,2.2,5.15,5,.04,2.8-2.2,5.11-5,5.15-2.8.04-5.11-2.2-5.15-5-.04-2.8,2.2-5.11,5-5.15Z"/>
    <circle class="cls-38" cx="747.53" cy="621.34" r="5.07" transform="translate(-52.38 69.06) rotate(-5.11)"/>
    <circle class="cls-34" cx="746.95" cy="580.75" r="5.07" transform="translate(-198.36 620.72) rotate(-40.29)"/>
    <path class="cls-71" d="m788.63,656.27c2.8-.04,5.11,2.2,5.15,5,.04,2.8-2.2,5.11-5,5.15-2.8.04-5.11-2.2-5.15-5-.04-2.8,2.2-5.11,5-5.15Z"/>
    <circle class="cls-35" cx="788.12" cy="620.76" r="5.07" transform="translate(-215.07 611.21) rotate(-37.68)"/>
    <path class="cls-72" d="m787.46,575.1c2.8-.04,5.11,2.2,5.15,5,.04,2.8-2.2,5.11-5,5.15-2.8.04-5.11-2.2-5.15-5-.04-2.8,2.2-5.11,5-5.15Z"/>
    <circle class="cls-59" cx="829.29" cy="660.76" r="5.07" transform="translate(122.69 1451.35) rotate(-86.76)"/>
    <circle class="cls-84" cx="828.7" cy="620.17" r="5.07" transform="translate(-133.38 238.4) rotate(-15.17)"/>
    <circle class="cls-81" cx="828.12" cy="579.59" r="5.07" transform="translate(11.52 1175.29) rotate(-71.1)"/>
  </g>
  <g>
    <path class="cls-76" d="m219.77,214.62c1.94-.03,3.54,1.52,3.56,3.46.03,1.94-1.52,3.54-3.46,3.56-1.94.03-3.54-1.52-3.56-3.46-.03-1.94,1.52-3.54,3.46-3.56Z"/>
    <path class="cls-23" d="m219.36,186.52c1.94-.03,3.54,1.52,3.56,3.46.03,1.94-1.52,3.54-3.46,3.56-1.94.03-3.54-1.52-3.56-3.46-.03-1.94,1.52-3.54,3.46-3.56Z"/>
    <path class="cls-43" d="m218.96,158.42c1.94-.03,3.54,1.52,3.56,3.46.03,1.94-1.52,3.54-3.46,3.56-1.94.03-3.54-1.52-3.56-3.46-.03-1.94,1.52-3.54,3.46-3.56Z"/>
    <path class="cls-6" d="m247.87,214.22c1.94-.03,3.54,1.52,3.56,3.46.03,1.94-1.52,3.54-3.46,3.56-1.94.03-3.54-1.52-3.56-3.46-.03-1.94,1.52-3.54,3.46-3.56Z"/>
    <path class="cls-27" d="m247.47,186.12c1.94-.03,3.54,1.52,3.56,3.46.03,1.94-1.52,3.54-3.46,3.56-1.94.03-3.54-1.52-3.56-3.46-.03-1.94,1.52-3.54,3.46-3.56Z"/>
    <path class="cls-41" d="m247.06,158.01c1.94-.03,3.54,1.52,3.56,3.46.03,1.94-1.52,3.54-3.46,3.56-1.94.03-3.54-1.52-3.56-3.46-.03-1.94,1.52-3.54,3.46-3.56Z"/>
    <path class="cls-66" d="m275.97,213.81c1.94-.03,3.54,1.52,3.56,3.46.03,1.94-1.52,3.54-3.46,3.56-1.94.03-3.54-1.52-3.56-3.46-.03-1.94,1.52-3.54,3.46-3.56Z"/>
    <path class="cls-93" d="m275.57,185.71c1.94-.03,3.54,1.52,3.56,3.46.03,1.94-1.52,3.54-3.46,3.56-1.94.03-3.54-1.52-3.56-3.46-.03-1.94,1.52-3.54,3.46-3.56Z"/>
    <path class="cls-1" d="m275.16,157.61c1.94-.03,3.54,1.52,3.56,3.46.03,1.94-1.52,3.54-3.46,3.56-1.94.03-3.54-1.52-3.56-3.46-.03-1.94,1.52-3.54,3.46-3.56Z"/>
    <path class="cls-53" d="m304.08,213.41c1.94-.03,3.54,1.52,3.56,3.46.03,1.94-1.52,3.54-3.46,3.56-1.94.03-3.54-1.52-3.56-3.46-.03-1.94,1.52-3.54,3.46-3.56Z"/>
    <path class="cls-31" d="m303.67,185.31c1.94-.03,3.54,1.52,3.56,3.46.03,1.94-1.52,3.54-3.46,3.56-1.94.03-3.54-1.52-3.56-3.46-.03-1.94,1.52-3.54,3.46-3.56Z"/>
    <path class="cls-29" d="m303.27,157.21c1.94-.03,3.54,1.52,3.56,3.46.03,1.94-1.52,3.54-3.46,3.56-1.94.03-3.54-1.52-3.56-3.46-.03-1.94,1.52-3.54,3.46-3.56Z"/>
    <path class="cls-15" d="m332.18,213.01c1.94-.03,3.54,1.52,3.56,3.46.03,1.94-1.52,3.54-3.46,3.56-1.94.03-3.54-1.52-3.56-3.46-.03-1.94,1.52-3.54,3.46-3.56Z"/>
    <circle class="cls-36" cx="331.82" cy="188.42" r="3.51"/>
    <path class="cls-77" d="m331.37,156.8c1.94-.03,3.54,1.52,3.56,3.46.03,1.94-1.52,3.54-3.46,3.56-1.94.03-3.54-1.52-3.56-3.46-.03-1.94,1.52-3.54,3.46-3.56Z"/>
    <path class="cls-50" d="m360.28,212.6c1.94-.03,3.54,1.52,3.56,3.46.03,1.94-1.52,3.54-3.46,3.56-1.94.03-3.54-1.52-3.56-3.46-.03-1.94,1.52-3.54,3.46-3.56Z"/>
    <path class="cls-82" d="m359.88,184.5c1.94-.03,3.54,1.52,3.56,3.46.03,1.94-1.52,3.54-3.46,3.56-1.94.03-3.54-1.52-3.56-3.46-.03-1.94,1.52-3.54,3.46-3.56Z"/>
    <path class="cls-70" d="m359.47,156.4c1.94-.03,3.54,1.52,3.56,3.46.03,1.94-1.52,3.54-3.46,3.56-1.94.03-3.54-1.52-3.56-3.46-.03-1.94,1.52-3.54,3.46-3.56Z"/>
  </g>
  <g>
    <circle class="cls-67" cx="462.28" cy="308.3" r="3.75"/>
    <circle class="cls-68" cx="492.28" cy="308.3" r="3.75"/>
    <circle class="cls-42" cx="522.29" cy="308.3" r="3.75"/>
    <circle class="cls-75" cx="462.28" cy="338.3" r="3.75" transform="translate(26.82 710.5) rotate(-76.72)"/>
    <circle class="cls-49" cx="492.28" cy="338.3" r="3.75" transform="translate(-91.99 214.14) rotate(-22.5)"/>
    <circle class="cls-62" cx="522.29" cy="338.3" r="3.75" transform="translate(-40.07 604.73) rotate(-58.28)"/>
    <circle class="cls-39" cx="462.28" cy="368.31" r="3.75"/>
    <circle class="cls-40" cx="492.28" cy="368.31" r="3.75"/>
    <circle class="cls-85" cx="522.29" cy="368.31" r="3.75"/>
    <circle class="cls-11" cx="462.28" cy="398.31" r="3.75"/>
    <circle class="cls-25" cx="492.28" cy="398.31" r="3.75" transform="translate(60.08 861.12) rotate(-85.93)"/>
    <circle class="cls-45" cx="522.29" cy="398.31" r="3.75" transform="translate(63.15 868.01) rotate(-82.98)"/>
    <circle class="cls-44" cx="462.28" cy="428.31" r="3.75" transform="translate(-60.78 779.82) rotate(-76.72)"/>
    <circle class="cls-73" cx="492.28" cy="428.31" r="3.75" transform="translate(-126.43 220.99) rotate(-22.5)"/>
    <circle class="cls-8" cx="522.29" cy="428.31" r="3.75" transform="translate(-116.64 647.42) rotate(-58.28)"/>
    <circle class="cls-26" cx="462.28" cy="458.31" r="3.75"/>
    <circle class="cls-83" cx="492.28" cy="458.31" r="3.75"/>
    <circle class="cls-65" cx="522.29" cy="458.31" r="3.75"/>
  </g>
  <g>
    <path class="cls-32" d="m1013.89,427.95c1.94-.03,3.54,1.52,3.56,3.46.03,1.94-1.52,3.54-3.46,3.56-1.94.03-3.54-1.52-3.56-3.46-.03-1.94,1.52-3.54,3.46-3.56Z"/>
    <path class="cls-10" d="m1013.48,399.85c1.94-.03,3.54,1.52,3.56,3.46.03,1.94-1.52,3.54-3.46,3.56-1.94.03-3.54-1.52-3.56-3.46-.03-1.94,1.52-3.54,3.46-3.56Z"/>
    <path class="cls-79" d="m1013.08,371.75c1.94-.03,3.54,1.52,3.56,3.46.03,1.94-1.52,3.54-3.46,3.56-1.94.03-3.54-1.52-3.56-3.46-.03-1.94,1.52-3.54,3.46-3.56Z"/>
    <path class="cls-56" d="m1041.99,427.55c1.94-.03,3.54,1.52,3.56,3.46.03,1.94-1.52,3.54-3.46,3.56-1.94.03-3.54-1.52-3.56-3.46-.03-1.94,1.52-3.54,3.46-3.56Z"/>
    <circle class="cls-88" cx="1041.63" cy="402.96" r="3.51" transform="translate(25.23 865.88) rotate(-45.64)"/>
    <path class="cls-24" d="m1041.18,371.35c1.94-.03,3.54,1.52,3.56,3.46.03,1.94-1.52,3.54-3.46,3.56-1.94.03-3.54-1.52-3.56-3.46-.03-1.94,1.52-3.54,3.46-3.56Z"/>
    <path class="cls-80" d="m1070.09,427.15c1.94-.03,3.54,1.52,3.56,3.46.03,1.94-1.52,3.54-3.46,3.56-1.94.03-3.54-1.52-3.56-3.46-.03-1.94,1.52-3.54,3.46-3.56Z"/>
    <path class="cls-20" d="m1069.69,399.04c1.94-.03,3.54,1.52,3.56,3.46.03,1.94-1.52,3.54-3.46,3.56-1.94.03-3.54-1.52-3.56-3.46-.03-1.94,1.52-3.54,3.46-3.56Z"/>
    <path class="cls-91" d="m1069.28,370.94c1.94-.03,3.54,1.52,3.56,3.46.03,1.94-1.52,3.54-3.46,3.56-1.94.03-3.54-1.52-3.56-3.46-.03-1.94,1.52-3.54,3.46-3.56Z"/>
    <path class="cls-96" d="m1098.19,426.74c1.94-.03,3.54,1.52,3.56,3.46.03,1.94-1.52,3.54-3.46,3.56-1.94.03-3.54-1.52-3.56-3.46-.03-1.94,1.52-3.54,3.46-3.56Z"/>
    <path class="cls-14" d="m1097.79,398.64c1.94-.03,3.54,1.52,3.56,3.46.03,1.94-1.52,3.54-3.46,3.56-1.94.03-3.54-1.52-3.56-3.46-.03-1.94,1.52-3.54,3.46-3.56Z"/>
    <path class="cls-55" d="m1097.38,370.54c1.94-.03,3.54,1.52,3.56,3.46.03,1.94-1.52,3.54-3.46,3.56-1.94.03-3.54-1.52-3.56-3.46-.03-1.94,1.52-3.54,3.46-3.56Z"/>
    <path class="cls-89" d="m1126.3,426.34c1.94-.03,3.54,1.52,3.56,3.46.03,1.94-1.52,3.54-3.46,3.56-1.94.03-3.54-1.52-3.56-3.46-.03-1.94,1.52-3.54,3.46-3.56Z"/>
    <circle class="cls-95" cx="1125.94" cy="401.75" r="3.51"/>
    <path class="cls-94" d="m1125.49,370.13c1.94-.03,3.54,1.52,3.56,3.46.03,1.94-1.52,3.54-3.46,3.56-1.94.03-3.54-1.52-3.56-3.46-.03-1.94,1.52-3.54,3.46-3.56Z"/>
    <path class="cls-19" d="m1154.4,425.93c1.94-.03,3.54,1.52,3.56,3.46.03,1.94-1.52,3.54-3.46,3.56-1.94.03-3.54-1.52-3.56-3.46-.03-1.94,1.52-3.54,3.46-3.56Z"/>
    <path class="cls-60" d="m1153.99,397.83c1.94-.03,3.54,1.52,3.56,3.46.03,1.94-1.52,3.54-3.46,3.56-1.94.03-3.54-1.52-3.56-3.46-.03-1.94,1.52-3.54,3.46-3.56Z"/>
    <path class="cls-61" d="m1153.59,369.73c1.94-.03,3.54,1.52,3.56,3.46.03,1.94-1.52,3.54-3.46,3.56-1.94.03-3.54-1.52-3.56-3.46-.03-1.94,1.52-3.54,3.46-3.56Z"/>
  </g>
  <path class="cls-78" d="m866.7,530.83c-7.01,0-12.72-5.71-12.72-12.72s5.71-12.72,12.72-12.72,12.72,5.71,12.72,12.72-5.71,12.72-12.72,12.72Zm0-23.85c-6.14,0-11.13,4.99-11.13,11.13s4.99,11.13,11.13,11.13,11.13-4.99,11.13-11.13-4.99-11.13-11.13-11.13Z"/>
  <path class="cls-64" d="m1087.33,520.1c-7.01,0-12.72-5.71-12.72-12.72s5.71-12.72,12.72-12.72,12.72,5.71,12.72,12.72-5.71,12.72-12.72,12.72Zm0-23.85c-6.14,0-11.13,4.99-11.13,11.13s4.99,11.13,11.13,11.13,11.13-4.99,11.13-11.13-4.99-11.13-11.13-11.13Z"/>
  <path class="cls-90" d="m326.4,367.51c-7.01,0-12.72-5.71-12.72-12.72s5.71-12.72,12.72-12.72,12.72,5.71,12.72,12.72-5.71,12.72-12.72,12.72Zm0-23.85c-6.14,0-11.13,4.99-11.13,11.13s4.99,11.13,11.13,11.13,11.13-4.99,11.13-11.13-4.99-11.13-11.13-11.13Z"/>
  <g>
    <line class="cls-87" x1="1045.63" y1="550.3" x2="1044.37" y2="580.56"/>
    <rect class="cls-4" x="1029.86" y="565.08" width="30.29" height=".71" transform="translate(436.15 1585.75) rotate(-87.59)"/>
  </g>
  <g>
    <line class="cls-30" x1="1031.76" y1="564.17" x2="1058.24" y2="566.69"/>
    <rect class="cls-63" x="1044.65" y="552.13" width=".71" height="26.6" transform="translate(383.04 1552.12) rotate(-84.56)"/>
  </g>
  <g>
    <line class="cls-21" x1="704.26" y1="419.9" x2="703" y2="450.16"/>
    <rect class="cls-9" x="688.49" y="434.68" width="30.29" height=".71" transform="translate(239.42 1119.76) rotate(-87.59)"/>
  </g>
  <g>
    <line class="cls-51" x1="690.39" y1="433.77" x2="716.87" y2="436.29"/>
    <rect class="cls-57" x="703.28" y="421.73" width=".71" height="26.6" transform="translate(203.85 1094.25) rotate(-84.56)"/>
  </g>
  <path class="cls-16" d="m472.43,136.97c-7.01,0-12.72-5.71-12.72-12.72s5.71-12.72,12.72-12.72,12.72,5.71,12.72,12.72-5.71,12.72-12.72,12.72Zm0-23.85c-6.14,0-11.13,4.99-11.13,11.13s4.99,11.13,11.13,11.13,11.13-4.99,11.13-11.13-4.99-11.13-11.13-11.13Z"/>
  <path class="cls-28" d="m885.5,695.2c-7.87,0-14.28-6.41-14.28-14.28s6.41-14.28,14.28-14.28,14.28,6.41,14.28,14.28-6.41,14.28-14.28,14.28Zm0-26.77c-6.89,0-12.49,5.6-12.49,12.49s5.6,12.49,12.49,12.49,12.49-5.6,12.49-12.49-5.6-12.49-12.49-12.49Z"/>
</svg>